# xmcd CD database file
#
# Track frame offsets:
#	150
#	30751
#	54002
#	71252
#	95478
#	116253
#	138679
#	183996
#
# Disc length: 4440 seconds
#
# Revision: 0
# Processed by: cddbd v1.5.1PL0 Copyright (c) Steve Scherf et al.
# Submitted via: CDex 1.51
#
DISCID=5a115608
DTITLE=ノーボトム！ - 祭場traX
DYEAR=2004
DGENRE=Techno
TTITLE0=アンダーワールド踊り
TTITLE1=サンバ・ジャ・ネイヨ・ネブタ・ダヨ2004
TTITLE2=ルパン三世のテーマ'78(ルパンさんさ)
TTITLE3=にゃまはげ
TTITLE4=東京音頭(ジョリアナ味)
TTITLE5=うらじゃングルビーーーツ！！
TTITLE6=郡上踊りでラリアート
TTITLE7=Data
EXTD=YEAR: 2004
EXTT0=
EXTT1=
EXTT2=
EXTT3=
EXTT4=
EXTT5=
EXTT6=
EXTT7=
PLAYORDER=
